# xmcd CD database file
#
# Track frame offsets:
#	150
#	18192
#	32330
#	47672
#	64110
#	77282
#	92840
#	104742
#	119580
#	135175
#	155492
#	171622
#	187225
#	204110
#	220730
#	234825
#	252487
#	266612
#	285547
#
# Disc length: 4142 seconds
#
# Revision: 2
# Processed by: cddbd v1.5.1PL0 Copyright (c) Steve Scherf et al.
# Submitted via: CDex 1.51
#
DISCID=04102c13
DTITLE=TULIP - 33 Station [CD1]
DYEAR=1989
DGENRE=Pop
TTITLE0=私の小さな人生
TTITLE1=魔法の黄色い靴
TTITLE2=一人の部屋
TTITLE3=心の旅
TTITLE4=夢中さ君に
TTITLE5=夏色のおもいで
TTITLE6=銀の指環
TTITLE7=青春の影
TTITLE8=ぼくがつくった愛のうた
TTITLE9=サボテンの花
TTITLE10=悲しきレイン・トレイン
TTITLE11=あのバスを停めて！
TTITLE12=娘が嫁ぐ朝
TTITLE13=風のメロディ
TTITLE14=ふたつの鍵
TTITLE15=ブルー・スカイ
TTITLE16=Welcome To My House
TTITLE17=博多っ子純情
TTITLE18=夕陽を追いかけて
EXTD=YEAR: 1989
EXTT0=
EXTT1=
EXTT2=
EXTT3=
EXTT4=
EXTT5=
EXTT6=
EXTT7=
EXTT8=
EXTT9=
EXTT10=
EXTT11=
EXTT12=
EXTT13=
EXTT14=
EXTT15=
EXTT16=
EXTT17=
EXTT18=
PLAYORDER=
